# Blender v2.78 (sub 0) OBJ File: ''
# www.blender.org
mtllib log.mtl
o log
v 0.825000 0.000000 0.175000
v 0.825000 0.000000 0.825000
v 0.175000 0.000000 0.825000
v 0.175000 0.000000 0.175000
v 0.825000 1.000000 0.175000
v 0.825000 1.000000 0.825000
v 0.175000 1.000000 0.825000
v 0.175000 1.000000 0.175000
v 0.846917 0.000000 0.153083
v 0.846917 0.000000 0.846917
v 0.153083 0.000000 0.153083
v 0.846917 1.000000 0.153083
v 0.153083 0.000000 0.846917
v 0.846917 1.000000 0.846917
v 0.153083 1.000000 0.846917
v 0.153083 1.000000 0.153083
v 0.662500 0.000000 0.175000
v 0.662500 0.000000 0.825000
v 0.662500 1.000000 0.175000
v 0.662500 1.000000 0.825000
v 0.698610 0.000000 -0.001526
v 0.698610 0.000000 1.001526
v 0.698610 1.000000 -0.001526
v 0.698610 1.000000 1.001526
v 0.337500 0.000000 0.175000
v 0.337500 0.000000 0.825000
v 0.337500 1.000000 0.175000
v 0.337500 1.000000 0.825000
v 0.301390 0.000000 -0.001526
v 0.301390 0.000000 1.001526
v 0.301390 1.000000 -0.001526
v 0.301389 1.000000 1.001526
v 0.825000 0.000000 0.662500
v 0.825000 1.000000 0.662500
v 1.001526 0.000000 0.693088
v 1.001526 1.000000 0.693088
v 0.175000 0.000000 0.662500
v 0.175000 1.000000 0.662500
v -0.001526 0.000000 0.693087
v -0.001526 1.000000 0.693087
v 0.175000 0.000000 0.337500
v 0.175000 1.000000 0.337500
v -0.001526 0.000000 0.306912
v -0.001526 1.000000 0.306912
v 0.825000 0.000000 0.337500
v 0.825000 1.000000 0.337500
v 1.001526 0.000000 0.306912
v 1.001526 1.000000 0.306913
vt 0.0938 0.5938
vt 0.0312 0.5312
vt 0.0000 0.5000
vt 0.0938 0.5000
vt 0.0938 0.5938
vt 0.0312 0.5312
vt -0.0000 0.5000
vt 0.0938 0.5000
vt 0.4062 0.9062
vt 0.4688 0.9688
vt 0.5000 1.0000
vt 0.4062 1.0000
vt 0.0938 0.9062
vt 0.0312 0.9688
vt 0.0000 1.0000
vt 0.0000 0.9062
vt 0.0938 0.0000
vt 0.0938 0.5000
vt 0.0000 0.5000
vt 0.0000 0.0000
vt 0.4062 0.0000
vt 0.4062 0.5000
vt 0.5000 0.5000
vt 0.5000 0.0000
vt 0.0938 0.5000
vt 0.0938 0.0000
vt 0.0000 0.0000
vt 0.0938 0.5000
vt 0.0938 0.0000
vt 0.0000 0.0000
vt 0.0000 0.5000
vt 0.4062 0.5938
vt 0.4688 0.5312
vt 0.5000 0.5000
vt 0.5000 0.5938
vt 0.0938 0.9062
vt 0.0312 0.9688
vt 0.0000 1.0000
vt 0.0000 0.9062
vt 0.4062 0.5938
vt 0.4688 0.5312
vt 0.5000 0.5000
vt 0.5000 0.5938
vt 0.4062 0.9062
vt 0.4688 0.9688
vt 0.5000 1.0000
vt 0.4062 1.0000
vt 0.4062 0.5938
vt 0.4062 0.5000
vt 0.4062 0.5938
vt 0.4062 0.5000
vt 0.0938 0.5000
vt 0.0938 0.0000
vt 0.5000 0.5000
vt 0.5000 0.0000
vt 0.4062 0.0000
vt 0.4062 0.5000
vt 0.0938 0.9062
vt 0.0938 1.0000
vt 0.0938 0.9062
vt 0.0938 1.0000
vt 0.5000 0.5000
vt 0.5000 0.0000
vt 0.4062 0.0000
vt 0.4062 0.5000
vt 0.0938 0.6250
vt 0.0000 0.6250
vt 0.4062 0.9062
vt 0.5000 0.9062
vt 0.0938 0.5938
vt 0.0000 0.5938
vt 0.4062 0.5000
vt 0.4062 0.0000
vt 0.4062 0.9062
vt 0.5000 0.9062
vt 0.4062 0.9062
vt 0.4062 0.5938
vt 0.0938 0.5938
vt 0.0938 0.9062
vt 0.0938 0.5938
vt 0.4062 0.5938
vt 0.4062 0.9062
vt 0.0938 0.9062
vn 0.0000 1.0000 0.0000
vn 0.0000 -1.0000 0.0000
vn 0.7053 -0.0000 0.7089
vn -0.7217 -0.0000 0.6922
vn -0.7053 -0.0000 -0.7089
vn -0.7217 0.0000 -0.6922
vn 0.7217 -0.0000 0.6922
vn 0.7217 0.0000 -0.6922
vn -0.7053 -0.0000 0.7089
vn 0.7053 0.0000 -0.7089
vn 0.0000 0.0000 -1.0000
vn -0.0000 -0.0000 1.0000
vn -1.0000 -0.0000 -0.0000
vn 1.0000 0.0000 0.0000
usemtl material
f 28/1/1 7/2/1 15/3/1 32/4/1
f 25/5/2 4/6/2 11/7/2 29/8/2
f 18/9/2 2/10/2 10/11/2 22/12/2
f 37/13/2 3/14/2 13/15/2 39/16/2
f 35/17/3 36/18/3 14/19/3 10/20/3
f 30/21/4 32/22/4 15/23/4 13/24/4
f 43/25/5 44/26/5 16/27/5 11/7/5
f 31/28/6 29/29/6 11/30/6 16/31/6
f 34/32/1 6/33/1 14/34/1 36/35/1
f 42/36/1 8/37/1 16/38/1 44/39/1
f 45/40/2 1/41/2 9/42/2 47/43/2
f 19/44/1 5/45/1 12/46/1 23/47/1
f 6/33/1 20/48/1 24/49/1 14/34/1
f 1/41/2 17/50/2 21/51/2 9/42/2
f 10/20/7 14/19/7 24/52/7 22/53/7
f 12/54/8 9/55/8 21/56/8 23/57/8
f 3/14/2 26/58/2 30/59/2 13/15/2
f 8/37/1 27/60/1 31/61/1 16/38/1
f 13/62/9 15/63/9 40/64/9 39/65/9
f 7/2/1 38/66/1 40/67/1 15/3/1
f 2/10/2 33/68/2 35/69/2 10/11/2
f 4/6/2 41/70/2 43/71/2 11/7/2
f 9/55/10 12/54/10 48/72/10 47/73/10
f 5/45/1 46/74/1 48/75/1 12/46/1
f 23/57/11 21/56/11 29/29/11 31/28/11
f 22/53/12 24/52/12 32/22/12 30/21/12
f 39/65/13 40/64/13 44/26/13 43/25/13
f 35/17/14 47/73/14 48/72/14 36/18/14
f 35/69/2 33/68/2 45/40/2 47/43/2
f 22/12/2 30/59/2 26/58/2 18/9/2
f 21/51/2 17/50/2 25/5/2 29/8/2
f 39/16/2 43/71/2 41/70/2 37/13/2
f 40/67/1 38/66/1 42/36/1 44/39/1
f 23/47/1 31/61/1 27/60/1 19/44/1
f 36/35/1 48/75/1 46/74/1 34/32/1
f 24/49/1 20/48/1 28/1/1 32/4/1
f 8/76/1 7/77/1 6/78/1 5/79/1
f 1/80/2 2/81/2 3/82/2 4/83/2
