# Blender v2.79 (sub 0) OBJ File: ''
# www.blender.org
mtllib log_pile_1.mtl
o log
v 0.168750 0.087500 0.500000
v 0.087500 0.087500 0.500000
v 0.076541 0.076541 0.500000
v 0.150695 -0.000763 0.500000
v 0.168750 0.412500 -0.000000
v 0.087500 0.412500 -0.000000
v 0.076541 0.423459 -0.000000
v 0.150695 0.500763 0.000000
v 0.331250 0.087500 -0.000000
v 0.412500 0.087500 -0.000000
v 0.423458 0.076542 -0.000000
v 0.349305 -0.000763 -0.000000
v 0.087500 0.168750 -0.000000
v 0.087500 0.087500 -0.000000
v 0.076541 0.076542 -0.000000
v -0.000763 0.153457 -0.000000
v 0.500763 0.153456 -0.000000
v 0.500763 0.153456 0.500000
v 0.423458 0.076541 0.500000
v 0.150695 -0.000763 -0.000000
v -0.000763 0.346544 -0.000000
v -0.000763 0.346544 0.500000
v 0.076541 0.423458 0.500000
v 0.150695 0.500763 0.500000
v 0.412500 0.168750 0.500000
v 0.412500 0.087500 0.500000
v 0.087500 0.331250 0.500000
v 0.087500 0.412500 0.500000
v 0.412500 0.331250 -0.000000
v 0.412500 0.412500 -0.000000
v 0.423458 0.423459 -0.000000
v 0.500763 0.346544 -0.000000
v 0.331250 0.412500 0.500000
v 0.412500 0.412500 0.500000
v 0.423458 0.423458 0.500000
v 0.349305 0.500763 0.500000
v 0.331250 0.087500 0.500000
v 0.349305 -0.000763 0.500000
v 0.331250 0.412500 -0.000000
v 0.349305 0.500763 0.000000
v 0.168750 0.087500 -0.000000
v 0.168750 0.412500 0.500000
v -0.000763 0.153456 0.500000
v 0.087500 0.168750 0.500000
v 0.412500 0.168750 -0.000000
v 0.087500 0.331250 -0.000000
v 0.500763 0.346543 0.500000
v 0.412500 0.331250 0.500000
vt 0.093800 0.593800
vt 0.031200 0.531200
vt 0.000000 0.500000
vt 0.093800 0.500000
vt 0.093800 0.593800
vt 0.031200 0.531200
vt -0.000000 0.500000
vt 0.093800 0.500000
vt 0.406200 0.906200
vt 0.468800 0.968800
vt 0.500000 1.000000
vt 0.406200 1.000000
vt 0.093800 0.906200
vt 0.031200 0.968800
vt 0.000000 1.000000
vt 0.000000 0.906200
vt 0.093800 0.000000
vt 0.093800 0.500000
vt 0.000000 0.500000
vt 0.000000 0.000000
vt 0.406200 0.000000
vt 0.406200 0.500000
vt 0.500000 0.500000
vt 0.500000 0.000000
vt 0.093800 0.500000
vt 0.093800 0.000000
vt 0.000000 0.000000
vt 0.093800 0.500000
vt 0.093800 0.000000
vt 0.000000 0.000000
vt 0.000000 0.500000
vt 0.406200 0.593800
vt 0.468800 0.531200
vt 0.500000 0.500000
vt 0.500000 0.593800
vt 0.093800 0.906200
vt 0.031200 0.968800
vt 0.000000 1.000000
vt 0.000000 0.906200
vt 0.406200 0.593800
vt 0.468800 0.531200
vt 0.500000 0.500000
vt 0.500000 0.593800
vt 0.406200 0.906200
vt 0.468800 0.968800
vt 0.500000 1.000000
vt 0.406200 1.000000
vt 0.406200 0.593800
vt 0.406200 0.500000
vt 0.406200 0.593800
vt 0.406200 0.500000
vt 0.093800 0.500000
vt 0.093800 0.000000
vt 0.500000 0.500000
vt 0.500000 0.000000
vt 0.406200 0.000000
vt 0.406200 0.500000
vt 0.093800 0.906200
vt 0.093800 1.000000
vt 0.093800 0.906200
vt 0.093800 1.000000
vt 0.500000 0.500000
vt 0.500000 0.000000
vt 0.406200 0.000000
vt 0.406200 0.500000
vt 0.093800 0.625000
vt 0.000000 0.625000
vt 0.406200 0.906200
vt 0.500000 0.906200
vt 0.093800 0.593800
vt 0.000000 0.593800
vt 0.406200 0.500000
vt 0.406200 0.000000
vt 0.406200 0.906200
vt 0.500000 0.906200
vt 0.406200 0.906200
vt 0.406200 0.593800
vt 0.093800 0.593800
vt 0.093800 0.906200
vt 0.093800 0.593800
vt 0.406200 0.593800
vt 0.406200 0.906200
vt 0.093800 0.906200
vn 0.0000 0.0000 1.0000
vn 0.0000 0.0000 -1.0000
vn 0.7053 -0.7089 -0.0000
vn -0.7217 -0.6922 -0.0000
vn -0.7053 0.7089 0.0000
vn -0.7217 0.6922 0.0000
vn 0.7217 -0.6922 -0.0000
vn 0.7217 0.6922 0.0000
vn -0.7053 -0.7089 -0.0000
vn 0.7053 0.7089 0.0000
vn 0.0000 1.0000 0.0000
vn 0.0000 -1.0000 -0.0000
vn -1.0000 0.0000 0.0000
vn 1.0000 0.0000 0.0000
usemtl material
s 1
f 1/1/1 2/2/1 3/3/1 4/4/1
f 5/5/2 6/6/2 7/7/2 8/8/2
f 9/9/2 10/10/2 11/11/2 12/12/2
f 13/13/2 14/14/2 15/15/2 16/16/2
f 17/17/3 18/18/3 19/19/3 11/20/3
f 20/21/4 4/22/4 3/23/4 15/24/4
f 21/25/5 22/26/5 23/27/5 7/7/5
f 24/28/6 8/29/6 7/30/6 23/31/6
f 25/32/1 26/33/1 19/34/1 18/35/1
f 27/36/1 28/37/1 23/38/1 22/39/1
f 29/40/2 30/41/2 31/42/2 32/43/2
f 33/44/1 34/45/1 35/46/1 36/47/1
f 26/33/1 37/48/1 38/49/1 19/34/1
f 30/41/2 39/50/2 40/51/2 31/42/2
f 11/20/7 19/19/7 38/52/7 12/53/7
f 35/54/8 31/55/8 40/56/8 36/57/8
f 14/14/2 41/58/2 20/59/2 15/15/2
f 28/37/1 42/60/1 24/61/1 23/38/1
f 15/62/9 3/63/9 43/64/9 16/65/9
f 2/2/1 44/66/1 43/67/1 3/3/1
f 10/10/2 45/68/2 17/69/2 11/11/2
f 6/6/2 46/70/2 21/71/2 7/7/2
f 31/55/10 35/54/10 47/72/10 32/73/10
f 34/45/1 48/74/1 47/75/1 35/46/1
f 36/57/11 40/56/11 8/29/11 24/28/11
f 12/53/12 38/52/12 4/22/12 20/21/12
f 16/65/13 43/64/13 22/26/13 21/25/13
f 17/17/14 32/73/14 47/72/14 18/18/14
f 17/69/2 45/68/2 29/40/2 32/43/2
f 12/12/2 20/59/2 41/58/2 9/9/2
f 40/51/2 39/50/2 5/5/2 8/8/2
f 16/16/2 21/71/2 46/70/2 13/13/2
f 43/67/1 44/66/1 27/36/1 22/39/1
f 36/47/1 24/61/1 42/60/1 33/44/1
f 18/35/1 47/75/1 48/74/1 25/32/1
f 38/49/1 37/48/1 1/1/1 4/4/1
f 28/76/1 2/77/1 26/78/1 34/79/1
f 30/80/2 10/81/2 14/82/2 6/83/2
