# Blender v2.79 (sub 0) OBJ File: ''
# www.blender.org
mtllib quern_top.mtl
o Cube_Cube.001
v -0.689103 -0.700000 0.689103
v -0.689103 0.000000 0.689103
v -0.689103 -0.700000 -0.689103
v -0.689103 0.000000 -0.689103
v 0.689103 -0.700000 0.689103
v 0.689103 0.000000 0.689103
v 0.689103 -0.700000 -0.689103
v 0.689103 0.000000 -0.689103
v 0.000000 -0.700000 -1.000000
v 0.000000 0.000000 -1.000000
v 0.000000 -0.700000 1.000000
v 0.000000 0.000000 1.000000
v 1.000000 -0.700000 0.000000
v 1.000000 0.000000 0.000000
v -1.000000 -0.700000 0.000000
v -1.000000 0.000000 0.000000
v 0.857930 -0.700000 -0.441442
v 0.000000 -0.700000 -0.514544
v 0.000000 -0.700000 0.000000
v -0.857930 -0.700000 0.441442
v 0.000000 -0.700000 0.514544
v -0.857930 0.000000 0.441442
v -0.857930 -0.700000 -0.441442
v -0.857930 0.000000 -0.441442
v 0.000000 0.000000 -0.514544
v 0.000000 0.000000 0.000000
v 0.857930 0.000000 0.441442
v 0.000000 0.000000 0.514544
v 0.857930 -0.700000 0.441442
v 0.857930 0.000000 -0.441442
v -0.428965 -0.700000 -0.857930
v -0.428965 0.000000 0.857930
v -0.428965 0.000000 -0.857930
v -0.428965 -0.700000 0.857930
v -0.500000 0.000000 0.000000
v -0.500000 -0.700000 0.000000
v -0.375000 -0.700000 0.385908
v -0.375000 0.000000 0.385908
v -0.375000 -0.700000 -0.385908
v -0.375000 0.000000 -0.385908
v 0.428965 0.000000 -0.857930
v 0.428965 -0.700000 0.857930
v 0.428965 -0.700000 -0.857930
v 0.428965 0.000000 0.857930
v 0.500000 0.000000 0.000000
v 0.375000 -0.700000 -0.385908
v 0.500000 -0.700000 0.000000
v 0.375000 0.000000 0.385908
v 0.375000 -0.700000 0.385908
v 0.375000 0.000000 -0.385908
v 0.156540 -1.044747 0.237632
v 0.156540 -0.695169 0.237632
v 0.156540 -1.044747 0.136064
v 0.156540 -0.695169 0.136064
v 0.258108 -1.044747 0.237632
v 0.258108 -0.695169 0.237632
v 0.258108 -1.044747 0.136064
v 0.258108 -0.695169 0.136064
vt 0.000000 -0.000000
vt 0.500000 -0.000000
vt 0.500000 0.500000
vt 0.000000 0.500000
vt 0.000000 -0.000000
vt 0.500000 -0.000000
vt 0.500000 0.500000
vt 0.000000 0.500000
vt 0.000000 -0.000000
vt 0.500000 -0.000000
vt 0.500000 0.500000
vt 0.000000 0.500000
vt 0.000000 -0.000000
vt 0.500000 -0.000000
vt 0.500000 0.500000
vt 0.000000 0.500000
vt 0.000000 -0.000000
vt 0.500000 -0.000000
vt 0.500000 0.500000
vt 0.000000 0.500000
vt 0.000000 -0.000000
vt 0.500000 -0.000000
vt 0.500000 0.500000
vt 0.000000 0.500000
vt 0.000000 -0.000000
vt 0.500000 -0.000000
vt 0.500000 0.500000
vt 0.000000 0.500000
vt 0.000000 -0.000000
vt 0.500000 -0.000000
vt 0.500000 0.500000
vt 0.000000 0.500000
vt 0.000000 -0.000000
vt 0.500000 -0.000000
vt 0.000000 0.500000
vt 0.000000 -0.000000
vt 0.500000 -0.000000
vt 0.500000 0.500000
vt 0.000000 0.500000
vt 0.000000 -0.000000
vt 0.500000 -0.000000
vt 0.500000 0.500000
vt 0.000000 0.500000
vt 0.000000 -0.000000
vt 0.500000 -0.000000
vt 0.500000 0.500000
vt 0.000000 0.500000
vt 0.000000 -0.000000
vt 0.500000 -0.000000
vt 0.500000 0.500000
vt 0.000000 0.500000
vt 0.000000 -0.000000
vt 0.500000 0.500000
vt 0.000000 0.500000
vt 0.000000 -0.000000
vt 0.500000 -0.000000
vt 0.500000 0.500000
vt 0.000000 0.500000
vt 0.000000 -0.000000
vt 0.500000 -0.000000
vt 0.500000 0.500000
vt 0.000000 0.500000
vt 0.000000 -0.000000
vt 0.500000 -0.000000
vt 0.500000 0.500000
vt 0.000000 0.500000
vt 0.500000 -0.000000
vt 0.500000 0.500000
vt 0.000000 0.500000
vt 0.000000 -0.000000
vt 0.500000 -0.000000
vt 0.000000 0.500000
vt 0.000000 -0.000000
vt 0.500000 -0.000000
vt 0.500000 0.500000
vt 0.000000 0.500000
vt 0.000000 -0.000000
vt 0.000000 0.500000
vt 0.500000 -0.000000
vt 0.500000 0.500000
vt 0.000000 0.500000
vt 0.000000 -0.000000
vt 0.500000 0.500000
vt 0.000000 0.500000
vt 0.000000 -0.000000
vt 0.500000 -0.000000
vt 0.000000 0.500000
vt 0.000000 -0.000000
vt 0.500000 -0.000000
vt 0.500000 0.500000
vt 0.000000 0.500000
vt 0.000000 -0.000000
vt 0.500000 -0.000000
vt 0.000000 0.500000
vt 0.000000 -0.000000
vt 0.500000 -0.000000
vt 0.500000 0.500000
vt 0.000000 0.500000
vt 0.000000 -0.000000
vt 0.500000 -0.000000
vt 0.500000 0.500000
vt 0.000000 0.500000
vt 0.000000 -0.000000
vt 0.500000 0.500000
vt 0.000000 0.500000
vt 0.000000 -0.000000
vt 0.500000 -0.000000
vt 0.500000 0.500000
vt 0.000000 -0.000000
vt 0.500000 -0.000000
vt 0.500000 0.500000
vt 0.000000 0.500000
vt 0.500000 -0.000000
vt 0.500000 0.500000
vt 0.000000 -0.000000
vt 0.500000 -0.000000
vt 0.500000 0.500000
vt 0.000000 0.500000
vt 0.000000 -0.000000
vt 0.500000 -0.000000
vt 0.500000 0.500000
vt 0.000000 0.500000
vt 0.500000 -0.000000
vt 0.500000 0.500000
vt 0.500000 -0.000000
vt 0.500000 0.500000
vt 0.500000 0.500000
vt 0.000000 0.500000
vt 0.000000 -0.000000
vt 0.500000 -0.000000
vt 0.000000 -0.000000
vt 0.500000 0.500000
vt 0.000000 0.500000
vt 0.000000 -0.000000
vt 0.500000 -0.000000
vt 0.500000 0.500000
vt 0.000000 -0.000000
vt 0.500000 -0.000000
vt 0.500000 0.500000
vt 0.000000 0.500000
vt 0.000000 -0.000000
vt 0.500000 -0.000000
vt 0.500000 0.500000
vt 0.000000 0.500000
vt 0.000000 -0.000000
vt 0.500000 -0.000000
vt 0.500000 0.500000
vt 0.000000 0.500000
vt 0.000000 -0.000000
vt 0.500000 -0.000000
vt 0.500000 0.500000
vt 0.000000 0.500000
vt 0.000000 -0.000000
vt 0.500000 -0.000000
vt 0.500000 0.500000
vt 0.000000 0.500000
vt 0.000000 -0.000000
vt 0.500000 -0.000000
vt 0.500000 0.500000
vt 0.000000 0.500000
vt 0.000000 -0.000000
vt 0.500000 -0.000000
vt 0.500000 0.500000
vt 0.000000 0.500000
vt 0.225000 0.875000
vt 0.225000 0.625000
vt 0.275000 0.625000
vt 0.275000 0.875000
vt 0.200000 0.875000
vt 0.200000 0.625000
vt 0.300000 0.625000
vt 0.300000 0.875000
vt 0.200000 0.875000
vt 0.200000 0.625000
vt 0.300000 0.625000
vt 0.300000 0.875000
vt 0.200000 0.875000
vt 0.200000 0.625000
vt 0.300000 0.625000
vt 0.300000 0.875000
vt 0.200000 0.700000
vt 0.300000 0.700000
vt 0.300000 0.800000
vt 0.200000 0.800000
vt 0.000000 -0.000000
vt 0.500000 -0.000000
vt 0.500000 0.500000
vt 0.000000 0.500000
vn 0.5444 0.0000 -0.8388
vn -0.5444 0.0000 0.8388
vn 0.3144 0.0000 0.9493
vn -0.3144 0.0000 -0.9493
vn 0.0000 -1.0000 0.0000
vn -0.9519 0.0000 0.3064
vn 0.0000 1.0000 0.0000
vn 0.9519 0.0000 0.3064
vn -0.9519 0.0000 -0.3064
vn 0.9519 0.0000 -0.3064
vn 0.8263 0.0000 -0.5633
vn -0.8263 0.0000 0.5633
vn -0.8263 0.0000 -0.5633
vn 0.8263 0.0000 0.5633
vn -0.5444 0.0000 -0.8388
vn -0.3144 0.0000 0.9493
vn 0.5444 0.0000 0.8388
vn 0.3144 0.0000 -0.9493
vn -1.0000 0.0000 0.0000
vn 0.0000 0.0000 -1.0000
vn 1.0000 0.0000 0.0000
vn 0.0000 0.0000 1.0000
usemtl None
s off
f 43/1/1 41/2/1 8/3/1 7/4/1
f 34/5/2 32/6/2 2/7/2 1/8/2
f 42/9/3 44/10/3 12/11/3 11/12/3
f 31/13/4 33/14/4 10/15/4 9/16/4
f 46/17/5 17/18/5 13/19/5 47/20/5
f 36/21/5 19/22/5 21/23/5 37/24/5
f 20/25/6 22/26/6 16/27/6 15/28/6
f 39/29/5 18/30/5 19/31/5 36/32/5
f 40/33/7 24/34/7 16/27/7 35/35/7
f 45/36/7 26/37/7 28/38/7 48/39/7
f 13/40/8 14/41/8 27/42/8 29/43/8
f 50/44/7 25/45/7 26/46/7 45/47/7
f 15/48/9 16/49/9 24/50/9 23/51/9
f 35/52/7 16/49/7 22/53/7 38/54/7
f 17/55/10 30/56/10 14/57/10 13/58/10
f 47/59/5 13/60/5 29/61/5 49/62/5
f 7/63/11 8/64/11 30/65/11 17/66/11
f 43/1/5 7/67/5 17/68/5 46/69/5
f 1/70/12 2/71/12 22/53/12 20/72/12
f 37/73/5 21/74/5 11/75/5 34/76/5
f 38/77/7 22/26/7 2/7/7 32/78/7
f 31/13/5 9/79/5 18/80/5 39/81/5
f 23/82/13 24/34/13 4/83/13 3/84/13
f 33/85/7 4/86/7 24/50/7 40/87/7
f 29/88/14 27/89/14 6/90/14 5/91/14
f 48/92/7 28/93/7 12/11/7 44/94/7
f 49/95/5 29/96/5 5/97/5 42/98/5
f 41/99/7 10/100/7 25/101/7 50/102/7
f 10/103/7 33/14/7 40/104/7 25/105/7
f 3/106/5 31/107/5 39/108/5 23/51/5
f 28/109/7 38/110/7 32/111/7 12/112/7
f 20/25/5 37/113/5 34/114/5 1/8/5
f 26/115/7 35/116/7 38/117/7 28/118/7
f 25/119/7 40/120/7 35/121/7 26/122/7
f 23/82/5 39/123/5 36/124/5 15/28/5
f 15/48/5 36/125/5 37/126/5 20/72/5
f 3/106/15 4/86/15 33/127/15 31/128/15
f 11/129/16 12/130/16 32/111/16 34/76/16
f 8/131/7 41/2/7 50/132/7 30/133/7
f 21/134/5 49/135/5 42/136/5 11/12/5
f 27/137/7 48/138/7 44/139/7 6/140/7
f 9/141/5 43/142/5 46/143/5 18/144/5
f 19/145/5 47/146/5 49/147/5 21/148/5
f 30/149/7 50/150/7 45/151/7 14/152/7
f 14/153/7 45/154/7 48/155/7 27/156/7
f 18/157/5 46/158/5 47/159/5 19/160/5
f 5/161/17 6/162/17 44/139/17 42/98/17
f 9/141/18 10/100/18 41/163/18 43/164/18
f 51/165/19 52/166/19 54/167/19 53/168/19
f 53/169/20 54/170/20 58/171/20 57/172/20
f 57/173/21 58/174/21 56/175/21 55/176/21
f 55/177/22 56/178/22 52/179/22 51/180/22
f 53/181/5 57/182/5 55/183/5 51/184/5
f 58/185/7 54/186/7 52/187/7 56/188/7
