# Blender v2.79 (sub 0) OBJ File: ''
# www.blender.org
mtllib windmill.mtl
o Cube_Cube.001
v -0.100000 -5.000000 0.100000
v -0.100000 5.000000 0.100000
v -0.100000 -5.000000 -0.100000
v -0.100000 5.000000 -0.100000
v 0.100000 -5.000000 0.100000
v 0.100000 5.000000 0.100000
v 0.100000 -5.000000 -0.100000
v 0.100000 5.000000 -0.100000
v -0.100000 -0.100000 -5.000000
v -0.100000 -0.100000 5.000000
v -0.100000 0.100000 -5.000000
v -0.100000 0.100000 5.000000
v 0.100000 -0.100000 -5.000000
v 0.100000 -0.100000 5.000000
v 0.100000 0.100000 -5.000000
v 0.100000 0.100000 5.000000
v 0.707107 0.707107 -5.000000
v -0.707107 -0.707107 -5.000000
v 0.707107 0.707107 -1.000000
v -0.707107 -0.707107 -1.000000
v -0.573577 0.819152 1.000000
v 0.573577 -0.819152 1.000000
v -0.573577 0.819152 5.000000
v 0.573577 -0.819152 5.000000
v -0.707107 -1.000000 0.707107
v -0.707107 -5.000000 0.707107
v 0.707107 -1.000000 -0.707107
v 0.707107 -5.000000 -0.707107
v -0.707107 5.000000 -0.707107
v -0.707107 1.000000 -0.707107
v 0.707107 5.000000 0.707107
v 0.707107 1.000000 0.707107
vt -0.000000 -0.000000
vt 0.500000 -0.000000
vt 0.500000 0.500000
vt -0.000000 0.500000
vt -0.000000 -0.000000
vt 0.500000 -0.000000
vt 0.500000 0.500000
vt -0.000000 0.500000
vt -0.000000 -0.000000
vt 0.500000 -0.000000
vt 0.500000 0.500000
vt -0.000000 0.500000
vt -0.000000 -0.000000
vt 0.500000 -0.000000
vt 0.500000 0.500000
vt -0.000000 0.500000
vt 0.500000 -0.000000
vt 0.500000 0.500000
vt -0.000000 -0.000000
vt -0.000000 0.500000
vt -0.000000 -0.000000
vt 0.500000 -0.000000
vt 0.500000 0.500000
vt -0.000000 0.500000
vt -0.000000 -0.000000
vt 0.500000 -0.000000
vt 0.500000 0.500000
vt -0.000000 0.500000
vt -0.000000 -0.000000
vt 0.500000 -0.000000
vt 0.500000 0.500000
vt -0.000000 0.500000
vt -0.000000 -0.000000
vt 0.500000 -0.000000
vt 0.500000 0.500000
vt -0.000000 0.500000
vt 0.500000 -0.000000
vt 0.500000 0.500000
vt -0.000000 -0.000000
vt -0.000000 0.500000
vt 0.000000 1.000000
vt 0.000000 0.500000
vt 0.500000 0.500000
vt 0.500000 1.000000
vt 0.000000 1.000000
vt 0.000000 0.500000
vt 0.500000 0.500000
vt 0.500000 1.000000
vt 0.000000 1.000000
vt 0.000000 0.500000
vt 0.500000 0.500000
vt 0.500000 1.000000
vt 0.000000 1.000000
vt 0.000000 0.500000
vt 0.500000 0.500000
vt 0.500000 1.000000
vn -1.0000 0.0000 0.0000
vn 0.0000 0.0000 -1.0000
vn 1.0000 0.0000 0.0000
vn 0.0000 0.0000 1.0000
vn 0.0000 -1.0000 0.0000
vn 0.0000 1.0000 0.0000
vn -0.7071 0.7071 0.0000
vn -0.8192 -0.5736 0.0000
vn 0.7071 0.0000 0.7071
vn -0.7071 0.0000 0.7071
usemtl material
s off
f 1/1/1 2/2/1 4/3/1 3/4/1
f 3/5/2 4/6/2 8/7/2 7/8/2
f 7/9/3 8/10/3 6/11/3 5/12/3
f 5/13/4 6/14/4 2/15/4 1/16/4
f 3/5/5 7/17/5 5/18/5 1/16/5
f 8/19/6 4/6/6 2/15/6 6/20/6
f 9/21/1 10/22/1 12/23/1 11/24/1
f 11/25/6 12/26/6 16/27/6 15/28/6
f 15/29/3 16/30/3 14/31/3 13/32/3
f 13/33/5 14/34/5 10/35/5 9/36/5
f 11/25/2 15/37/2 13/38/2 9/36/2
f 16/39/4 12/26/4 10/35/4 14/40/4
f 20/41/7 19/42/7 17/43/7 18/44/7
f 24/45/8 23/46/8 21/47/8 22/48/8
f 25/49/9 26/50/9 28/51/9 27/52/9
f 29/53/10 30/54/10 32/55/10 31/56/10
